<?xml version="1.0" encoding="UTF-8" standalone="no"?>
<svg width="147px" height="22px" viewBox="0 0 147 22" version="1.1" xmlns="http://www.w3.org/2000/svg" xmlns:xlink="http://www.w3.org/1999/xlink">
    <!-- Generator: Sketch 3.7.2 (28276) - http://www.bohemiancoding.com/sketch -->
    <title>Combined Shape</title>
    <desc>Created with Sketch.</desc>
    <defs></defs>
    <g id="Page-1" stroke="none" stroke-width="1" fill="none" fill-rule="evenodd">
        <g id="Group-18" fill="#02208C">
            <g id="Group-13">
                <path d="M0.5984,21.2 L14.1712,21.2 L14.96,15.1888 L14.2528,15.1888 L13.9264,16.0864 C12.4848,19.3504 11.3424,20.656 7.9424,20.656 L6.392,20.5472 L6.392,5.2336 C6.392,5.016 6.8,4.8256 7.5888,4.7712 L8.9216,4.6352 L9.0032,4.2 L0.6256,4.2 L0.7072,4.6352 L1.496,4.744 C2.7472,4.8528 2.8832,4.9616 2.8832,5.1792 L2.8832,20.1664 C2.8832,20.3568 2.6112,20.5472 1.7136,20.6288 L0.68,20.7648 L0.5984,21.2 Z M25.3232,21.5536 C26.6016,21.5536 27.7712,20.2208 28.4512,19.3504 L28.1792,19.0784 C27.7984,19.4592 27.4176,19.84 27.0096,19.84 C26.4112,19.84 26.0576,19.4048 26.112,18.4256 L26.3296,13.5296 C26.4928,10.1568 25.296,8.96 22.3312,8.96 C19.8832,8.96 16.3744,10.5376 16.3744,12.2784 C16.3744,13.0672 17.0816,13.584 17.952,13.584 C18.904,13.584 19.5296,12.904 19.5296,12.1696 C19.5296,11.408 18.768,10.7824 18.768,10.592 C18.768,10.32 19.5296,9.9392 20.5088,9.9392 C22.2224,9.9392 23.2832,11.136 23.2016,13.448 L23.1744,14.1552 C18.1424,15.4064 16.4016,16.7392 16.4016,18.752 C16.4016,20.3024 17.7344,21.5264 19.3664,21.5264 C20.808,21.5264 21.9504,20.4656 23.0656,19.2144 L23.12,19.2416 C23.2832,20.7376 24.0992,21.5536 25.3232,21.5536 L25.3232,21.5536 Z M21.1344,19.6224 C20.1824,19.6224 19.448,18.888 19.448,17.7184 C19.448,16.44 20.1824,15.4064 23.2016,14.6448 L23.0384,18.6976 C22.44,19.296 21.8688,19.6224 21.1344,19.6224 L21.1344,19.6224 Z M28.7776,21.2 L35.2512,21.2 L35.1968,20.7648 L34.68,20.7376 C33.6736,20.656 33.5376,20.5472 33.5376,20.3024 L33.5376,11.8704 C34.1088,11.4624 34.9248,11.0544 35.9312,11.0544 C37.3728,11.0544 38.216,11.68 38.216,13.6928 L38.216,20.2752 C38.216,20.4928 38.1344,20.6832 37.2368,20.7376 L36.7472,20.7648 L36.6656,21.2 L43.0848,21.2 L43.0032,20.7648 L42.6224,20.7376 C41.3984,20.6016 41.3168,20.4656 41.3168,20.2752 L41.3168,12.904 C41.3168,11.6528 41.0448,10.5104 40.392,9.8576 C39.8208,9.2864 39.0864,8.9872 38.216,8.9872 C36.448,8.9872 34.8704,10.2112 33.592,11.272 L33.5104,11.272 L33.5648,9.0144 L28.7232,10.3472 L28.696,10.6736 L29.2672,10.8096 C30.2192,11.0544 30.4096,11.2992 30.4096,12.9856 L30.4096,20.2752 C30.4096,20.6016 30.1104,20.6832 29.3216,20.7376 L28.8592,20.7648 L28.7776,21.2 Z M43.7376,21.2 L54.0192,21.2 L54.944,16.5488 L54.3728,16.5488 L53.8016,17.664 C52.9312,19.3504 51.6256,20.5744 48.6336,20.6288 L47.328,20.6288 L54.536,9.776 L54.536,9.368 L44.2544,9.368 L44.2544,13.9648 L44.8256,13.9648 L45.3696,12.6048 C46.104,10.8368 46.92,10.0208 49.6672,9.9392 L50.864,9.912 L43.7376,20.8192 L43.7376,21.2 Z M65.144,21.5536 C66.4224,21.5536 67.592,20.2208 68.272,19.3504 L68,19.0784 C67.6192,19.4592 67.2384,19.84 66.8304,19.84 C66.232,19.84 65.8784,19.4048 65.9328,18.4256 L66.1504,13.5296 C66.3136,10.1568 65.1168,8.96 62.152,8.96 C59.704,8.96 56.1952,10.5376 56.1952,12.2784 C56.1952,13.0672 56.9024,13.584 57.7728,13.584 C58.7248,13.584 59.3504,12.904 59.3504,12.1696 C59.3504,11.408 58.5888,10.7824 58.5888,10.592 C58.5888,10.32 59.3504,9.9392 60.3296,9.9392 C62.0432,9.9392 63.104,11.136 63.0224,13.448 L62.9952,14.1552 C57.9632,15.4064 56.2224,16.7392 56.2224,18.752 C56.2224,20.3024 57.5552,21.5264 59.1872,21.5264 C60.6288,21.5264 61.7712,20.4656 62.8864,19.2144 L62.9408,19.2416 C63.104,20.7376 63.92,21.5536 65.144,21.5536 L65.144,21.5536 Z M60.9552,19.6224 C60.0032,19.6224 59.2688,18.888 59.2688,17.7184 C59.2688,16.44 60.0032,15.4064 63.0224,14.6448 L62.8592,18.6976 C62.2608,19.296 61.6896,19.6224 60.9552,19.6224 L60.9552,19.6224 Z M68.68,21.2 L76.7312,21.2 L76.6496,20.7648 L75.8608,20.656 C74.6368,20.5472 74.4736,20.4656 74.4736,20.248 L74.4736,12.8496 L82.0896,12.8496 L82.0896,20.1664 C82.0896,20.384 81.7632,20.5472 80.92,20.656 L79.8864,20.7648 L79.8048,21.2 L87.856,21.2 L87.7744,20.7648 L87.0128,20.656 C85.7616,20.5472 85.6256,20.4656 85.6256,20.248 L85.6256,5.2336 C85.6256,5.016 85.952,4.8528 86.7952,4.744 L87.8016,4.6352 L87.8832,4.2 L79.832,4.2 L79.9136,4.6352 L80.7024,4.744 C81.9264,4.8528 82.0896,4.9344 82.0896,5.152 L82.0896,12.2512 L74.4736,12.2512 L74.4736,5.2336 C74.4736,5.0432 74.8,4.8528 75.6704,4.744 L76.6768,4.6352 L76.7584,4.2 L68.7072,4.2 L68.7888,4.6352 L69.5504,4.744 C70.8016,4.8528 70.9648,4.9344 70.9648,5.152 L70.9648,20.1664 C70.9648,20.384 70.6384,20.5472 69.768,20.656 L68.7616,20.7648 L68.68,21.2 Z M94.9824,21.5808 C98.872,21.5808 101.6192,18.7248 101.6192,15.1616 C101.6192,11.7344 99.1168,8.96 95.2272,8.96 C91.3376,8.96 88.5904,11.7888 88.5904,15.2976 C88.5904,18.7792 91.0384,21.5808 94.9824,21.5808 L94.9824,21.5808 Z M95.0912,21.0368 C94.3568,21.0368 93.7856,20.7648 93.3776,20.3296 C92.5072,19.432 92.0448,17.6368 92.0448,14.9168 C92.0448,11.8704 93.1056,9.5312 95.064,9.5312 C95.8256,9.5312 96.3424,9.8304 96.7504,10.2384 C97.6208,11.1088 98.1104,12.904 98.1104,15.5696 C98.1104,18.6704 96.9952,21.0368 95.0912,21.0368 L95.0912,21.0368 Z M102.7616,21.2 L109.2352,21.2 L109.1536,20.7648 L108.6912,20.7376 C107.6304,20.656 107.5216,20.5472 107.5216,20.3024 L107.5216,11.8432 C108.0928,11.4352 108.8,11.0544 109.6976,11.0544 C111.1392,11.0544 111.928,11.7072 111.928,13.6928 L111.928,20.2752 C111.928,20.4928 111.792,20.6832 110.9488,20.7376 L110.4592,20.7648 L110.3776,21.2 L116.7424,21.2 L116.6608,20.7648 L116.2256,20.7376 C115.1104,20.6016 115.0288,20.52 115.0288,20.3024 L115.0288,13.04 C115.0288,12.9856 115.056,12.0336 115.056,12.0064 C115.3552,11.4896 116.3072,11.0544 117.1776,11.0544 C118.6464,11.0544 119.4352,11.7072 119.4352,13.6928 L119.4352,20.2752 C119.4352,20.4928 119.3536,20.6832 118.456,20.7376 L117.9392,20.7648 L117.8576,21.2 L124.304,21.2 L124.2224,20.7648 L123.8416,20.7376 C122.5904,20.6016 122.536,20.4656 122.536,20.2752 L122.536,13.312 C122.536,11.68 122.264,10.5104 121.6384,9.8576 C121.04,9.2864 120.3328,8.9872 119.4352,8.9872 C117.6944,8.9872 116.1984,10.1296 114.9472,11.3536 L114.8656,11.3264 C114.7296,10.728 114.4848,10.2384 114.1312,9.8576 C113.56,9.3136 112.8256,8.9872 111.928,8.9872 C110.1872,8.9872 108.7456,10.184 107.576,11.272 L107.4944,11.272 L107.5488,9.0144 L102.7072,10.3472 L102.68,10.6736 L103.2512,10.8096 C104.2032,11.0544 104.3936,11.2992 104.3936,12.9856 L104.3936,20.2752 C104.3936,20.6016 104.0944,20.6832 103.3056,20.7376 L102.8432,20.7648 L102.7616,21.2 Z M130.696,21.608 C133.3072,21.608 135.0752,20.1936 136.1632,17.7456 L135.8368,17.5824 C134.9664,18.9968 133.824,19.5952 132.3824,19.5952 C129.9888,19.5952 128.3296,17.5824 128.3296,14.5904 C128.3296,14.3184 128.3296,13.8288 128.384,13.5568 C128.9008,13.6112 135.9456,13.6656 135.9456,13.6656 C136,13.4208 136.0272,13.1488 136.0272,12.904 C136.0272,10.7552 134.3952,8.9328 131.4304,8.9328 C127.7584,8.9328 125.0384,11.816 125.0384,15.5696 C125.0384,19.0512 127.4592,21.608 130.696,21.608 L130.696,21.608 Z M128.4112,13.0944 C128.656,10.9456 129.7984,9.5312 131.0768,9.5312 C132.464,9.5312 133.008,11.2448 132.9808,13.0672 L128.4112,13.0944 Z M141.712,21.5808 C145.0576,21.5808 146.7168,19.6768 146.7168,17.6368 C146.7168,15.3248 144.8672,14.5088 142.9904,13.7744 C141.304,13.1488 140.1344,12.6864 140.1344,11.408 C140.1344,10.2656 140.896,9.5312 142.1744,9.5312 C142.9088,9.5312 143.48,9.8304 143.9152,10.1296 L145.5472,12.8496 L146.1728,12.8224 L146.0368,9.1504 L144.9216,9.4224 C144.2144,9.1776 143.2624,8.9872 142.2288,8.9872 C139.536,8.9872 137.7408,10.5104 137.7408,12.7136 C137.7408,14.944 139.4,15.7328 141.304,16.4672 C142.9088,17.0656 144.2144,17.664 144.2144,18.9696 C144.2144,20.1936 143.2896,21.0368 141.8752,21.0368 C140.5424,21.0368 139.672,20.3024 138.8832,18.9968 L138.2032,17.4464 L137.5504,17.4192 L137.7136,20.9008 C138.7472,21.3088 140.1616,21.5808 141.712,21.5808 Z M16,5 L41,0 L41,2 L16,7 L16,5 Z M41,0 L66,5 L66,7 L41,2 L41,0 Z" id="Combined-Shape"></path>
            </g>
        </g>
    </g>
</svg>