<?xml version="1.0" encoding="UTF-8" standalone="no"?>
<svg width="162px" height="24px" viewBox="0 0 162 24" version="1.1" xmlns="http://www.w3.org/2000/svg" xmlns:xlink="http://www.w3.org/1999/xlink">
    <!-- Generator: Sketch 3.7.2 (28276) - http://www.bohemiancoding.com/sketch -->
    <title>Group 18</title>
    <desc>Created with Sketch.</desc>
    <defs></defs>
    <g id="Page-1" stroke="none" stroke-width="1" fill="none" fill-rule="evenodd">
        <g id="LanzaHomes" transform="translate(-100.000000, -33.000000)" fill="#02208C">
            <g id="Group-18" transform="translate(100.000000, 33.000000)">
                <path d="M16.5104,23.2 L16.7008,16.0736 L16.2112,16.0736 C14.3616,21.2416 12.8384,22.7104 10.3904,22.7104 L8.84,22.7104 C7.6976,22.7104 7.2352,22.2208 7.2352,21.16 L7.2352,7.288 C7.2352,6.0368 7.4256,5.5744 8.9488,5.3568 L10.2816,5.1664 L10.2816,4.7312 C8.5952,4.7312 7.0992,4.7584 5.3856,4.7584 C3.6992,4.7584 2.2032,4.7312 0.5168,4.7312 L0.5168,5.1664 L1.7952,5.3568 C3.2912,5.5744 3.4816,6.0096 3.4816,7.2336 L3.4816,20.6976 C3.4816,21.9216 3.2912,22.3568 1.7952,22.5744 L0.5168,22.7648 L0.5168,23.2 L16.5104,23.2 Z M23.8,22.5744 C22.576,22.5744 21.8688,21.704 21.8688,20.208 C21.8688,17.6512 23.3104,16.8896 26.1664,16.4544 L26.1664,19.5552 C26.1664,21.6496 25.0784,22.5744 23.8,22.5744 L23.8,22.5744 Z M31.9056,19.7184 L31.4704,19.7184 C31.3616,21.976 30.9264,22.5744 30.2464,22.5744 C29.5936,22.5744 29.3488,22.112 29.3488,21.16 C29.3488,20.9696 29.376,14.4144 29.376,14.1152 C29.376,11.0688 27.3904,9.6 24.0176,9.6 C21.1616,9.6 19.1488,11.096 19.1488,13.0272 C19.1488,14.3328 19.9104,15.176 21.1072,15.176 C22.2224,15.176 23.0112,14.5232 23.0112,13.4624 C23.0112,12.0208 21.6512,12.1024 21.6512,11.2048 C21.6512,10.6336 22.4672,10.008 23.8816,10.008 C25.7312,10.008 26.1936,10.9328 26.1936,13.3264 L26.1936,16.0736 C22.168,16.4544 18.496,17.4608 18.496,20.48 C18.496,22.3568 19.8016,23.608 22.3312,23.608 C24.5344,23.608 26.112,22.4656 26.5744,20.6432 C26.7648,22.792 27.6352,23.5264 29.24,23.5264 C31.0896,23.5264 31.824,22.5472 31.9056,19.7184 L31.9056,19.7184 Z M48.1984,23.2 L48.1984,22.792 L47.3008,22.6288 C46.2128,22.4656 46.0496,22.1392 46.0496,21.0512 L46.0496,13.8704 C46.0496,10.96 44.3632,9.5728 41.9152,9.5728 C38.7872,9.5728 37.264,12.3744 37.264,16.5088 C37.264,13.9248 37.3184,11.6672 37.4272,9.8448 L36.9104,9.6544 L31.7968,10.7696 L31.7968,11.1504 L32.6944,11.2048 C33.9728,11.3136 34.3536,11.5856 34.3536,12.8912 L34.3536,21.0512 C34.3536,22.1392 34.1632,22.4656 33.0752,22.6288 L32.2048,22.792 L32.2048,23.2 C33.5104,23.2 34.6256,23.1728 35.9312,23.1728 C37.264,23.1728 38.352,23.2 39.6848,23.2 L39.6848,22.792 L38.8144,22.6288 C37.8352,22.4656 37.6448,22.1936 37.6448,21.0784 L37.6448,16.5088 C37.6448,12.7552 39.1136,10.5792 40.8,10.5792 C42.16,10.5792 42.7312,11.4224 42.7312,13.5984 L42.7312,21.0784 C42.7312,22.1936 42.5408,22.4656 41.5616,22.6288 L40.7184,22.792 L40.7184,23.2 C42.024,23.2 43.1664,23.1728 44.472,23.1728 C45.8048,23.1728 46.8656,23.2 48.1984,23.2 L48.1984,23.2 Z M49.1776,23.2 L60.4656,23.2 L60.6288,17.488 L60.1936,17.488 C58.616,21.6768 57.8816,22.7104 55.3792,22.7104 L52.9856,22.7104 L60.5472,10.4704 L60.5472,9.9536 L49.7488,9.9536 L49.5856,15.5568 L50.0208,15.5568 C51.3264,11.504 52.3872,10.4704 54.536,10.4704 L56.7664,10.4704 L49.1776,22.7104 L49.1776,23.2 Z M67.9728,22.5744 C66.7488,22.5744 66.0416,21.704 66.0416,20.208 C66.0416,17.6512 67.4832,16.8896 70.3392,16.4544 L70.3392,19.5552 C70.3392,21.6496 69.2512,22.5744 67.9728,22.5744 L67.9728,22.5744 Z M76.0784,19.7184 L75.6432,19.7184 C75.5344,21.976 75.0992,22.5744 74.4192,22.5744 C73.7664,22.5744 73.5216,22.112 73.5216,21.16 C73.5216,20.9696 73.5488,14.4144 73.5488,14.1152 C73.5488,11.0688 71.5632,9.6 68.1904,9.6 C65.3344,9.6 63.3216,11.096 63.3216,13.0272 C63.3216,14.3328 64.0832,15.176 65.28,15.176 C66.3952,15.176 67.184,14.5232 67.184,13.4624 C67.184,12.0208 65.824,12.1024 65.824,11.2048 C65.824,10.6336 66.64,10.008 68.0544,10.008 C69.904,10.008 70.3664,10.9328 70.3664,13.3264 L70.3664,16.0736 C66.3408,16.4544 62.6688,17.4608 62.6688,20.48 C62.6688,22.3568 63.9744,23.608 66.504,23.608 C68.7072,23.608 70.2848,22.4656 70.7472,20.6432 C70.9376,22.792 71.808,23.5264 73.4128,23.5264 C75.2624,23.5264 75.9968,22.5472 76.0784,19.7184 L76.0784,19.7184 Z M97.8656,23.2 L97.8656,22.7648 L96.5872,22.5744 C95.0912,22.3568 94.9008,21.9216 94.9008,20.6976 L94.9008,7.2336 C94.9008,6.0096 95.0912,5.5744 96.5872,5.3568 L97.8656,5.1664 L97.8656,4.7312 C96.2064,4.7312 94.7376,4.7584 93.0512,4.7584 C91.392,4.7584 89.9504,4.7312 88.264,4.7312 L88.264,5.1664 L89.5152,5.3568 C90.984,5.6016 91.1472,6.0096 91.1472,7.2608 L91.1472,13.4624 L83.3408,13.4624 L83.3408,7.2336 C83.3408,6.0096 83.5312,5.6016 84.9728,5.3568 L86.224,5.1664 L86.224,4.7312 C84.5648,4.7312 83.096,4.7584 81.4368,4.7584 C79.7504,4.7584 78.2816,4.7312 76.6224,4.7312 L76.6224,5.1664 L77.9008,5.3568 C79.3968,5.5744 79.5872,6.0096 79.5872,7.2336 L79.5872,20.6976 C79.5872,21.9216 79.3968,22.3568 77.9008,22.5744 L76.6224,22.7648 L76.6224,23.2 C78.2816,23.2 79.7504,23.1728 81.4368,23.1728 C83.096,23.1728 84.5648,23.2 86.224,23.2 L86.224,22.7648 L84.9728,22.5744 C83.5312,22.3296 83.3408,21.9216 83.3408,20.6976 L83.3408,14.0336 L91.1472,14.0336 L91.1472,20.6976 C91.1472,21.9216 90.984,22.3568 89.5152,22.5744 L88.264,22.7648 L88.264,23.2 C89.9504,23.2 91.392,23.1728 93.0512,23.1728 C94.7376,23.1728 96.2064,23.2 97.8656,23.2 L97.8656,23.2 Z M111.928,16.5904 C111.928,12.1568 108.936,9.5728 105.4272,9.5728 C101.9456,9.5728 98.9264,12.1568 98.9264,16.5904 C98.9264,21.024 101.9456,23.608 105.4272,23.608 C108.936,23.608 111.928,21.024 111.928,16.5904 L111.928,16.5904 Z M102.4896,16.5904 C102.4896,12.6464 103.1424,9.9808 105.4272,9.9808 C107.7392,9.9808 108.3648,12.6464 108.3648,16.5904 C108.3648,20.5344 107.7392,23.1728 105.4272,23.1728 C103.1424,23.1728 102.4896,20.5344 102.4896,16.5904 L102.4896,16.5904 Z M137.1968,23.2 L137.1696,22.792 L136.2992,22.6288 C135.2112,22.4656 135.048,22.1392 135.048,21.0512 L135.048,13.8704 C135.048,10.9056 133.3888,9.5728 130.9952,9.5728 C128.0304,9.5728 126.4528,12.2384 126.4528,16.5088 C126.4528,15.7744 126.5072,15.04 126.5072,13.816 C126.5072,10.824 125.12,9.5728 122.7264,9.5728 C119.7888,9.5728 118.2384,12.2656 118.2384,16.5088 C118.2384,13.952 118.2928,11.6672 118.4016,9.8448 L117.8848,9.6544 L112.7712,10.7696 L112.7712,11.1504 L113.6688,11.2048 C114.9472,11.3136 115.328,11.5856 115.328,12.8912 L115.328,21.0512 C115.328,22.1392 115.1376,22.4656 114.0496,22.6288 L113.1792,22.792 L113.1792,23.2 C114.512,23.2 115.5456,23.1728 116.8784,23.1728 C118.2112,23.1728 119.2992,23.2 120.632,23.2 L120.632,22.792 L119.7888,22.6288 C118.8096,22.4656 118.6192,22.1936 118.6192,21.0784 L118.6192,16.5088 C118.6192,12.7008 120.0608,10.5792 121.72,10.5792 C122.944,10.5792 123.5152,11.5856 123.5152,13.5984 L123.5152,21.0784 C123.5152,22.1936 123.352,22.4656 122.3456,22.6288 L121.5024,22.792 L121.5024,23.2 C122.808,23.2 123.896,23.1728 125.1744,23.1728 C126.48,23.1728 127.568,23.2 128.8464,23.2 L128.8464,22.792 L128.0032,22.6288 C127.024,22.4656 126.8336,22.1936 126.8336,21.0784 L126.8336,16.5088 C126.8336,12.7552 128.2208,10.5792 129.88,10.5792 C131.104,10.5792 131.7296,11.4768 131.7296,13.5984 L131.7296,21.0784 C131.7296,22.1936 131.5392,22.4656 130.56,22.6288 L129.7168,22.792 L129.7168,23.2 C131.0496,23.2 132.1648,23.1728 133.4976,23.1728 C134.8304,23.1728 135.864,23.2 137.1968,23.2 L137.1968,23.2 Z M146.5808,15.04 L141.7664,15.3664 C141.9568,11.4768 143.0448,9.9808 144.6768,9.9808 C146.7712,9.9808 146.7984,12.4288 146.6352,14.5776 L146.5808,15.04 Z M149.8992,20.072 L149.5184,19.8544 C148.4576,21.7312 147.1792,22.4928 145.5472,22.4928 C143.0992,22.4928 141.7392,20.4256 141.7392,16.6176 L141.7392,15.8016 L149.7904,15.8288 C149.872,15.448 149.8992,14.9856 149.8992,14.4416 C149.8992,11.3408 147.832,9.5728 144.6496,9.5728 C141.3856,9.5728 138.1488,11.9936 138.1488,16.6448 C138.1488,21.1872 141.168,23.5808 144.5136,23.5808 C147.0432,23.5808 148.6752,22.3568 149.8992,20.072 L149.8992,20.072 Z M161.9216,19.392 C161.9216,16.8352 159.9632,15.6928 158.032,15.0128 C155.6112,14.1152 154.5776,13.5168 154.5776,12.048 C154.5776,10.9056 155.3392,9.9808 156.9984,9.9808 C158.6576,9.9808 159.7728,11.4768 160.752,14.632 L161.2416,14.632 L161.2416,9.6 L161.024,9.6 L160.2896,10.7152 C159.5008,9.9808 158.3584,9.5728 156.9984,9.5728 C154.1968,9.5728 152.2112,11.2592 152.2112,13.5712 C152.2112,16.1008 154.0608,17.1888 156.0736,17.9232 C158.6032,18.8208 159.5824,19.5008 159.5824,20.9696 C159.5824,22.4928 158.44,23.1728 156.9712,23.1728 C155.0944,23.1728 153.5984,21.7584 152.4832,17.9232 L151.9936,17.9232 L151.9936,23.5808 L152.2112,23.5808 L153.0272,22.3296 C153.9248,23.1456 155.2576,23.608 156.9984,23.608 C159.8,23.608 161.9216,22.0576 161.9216,19.392 L161.9216,19.392 Z" id="LanzaHomes"></path>
                <path d="M20,5 L46,0 L46,2 L20,7 L20,5 Z M46,0 L72,5 L72,7 L46,2 L46,0 Z" id="Combined-Shape"></path>
            </g>
        </g>
    </g>
</svg>